solid shape, STL ascii file, created with Open CASCADE Technology
 facet normal 1.000000e+00 0.000000e+00 0.000000e+00
   outer loop
     vertex 7.800000e+00 0.000000e+00 3.500000e+00
     vertex 7.800000e+00 1.630000e+01 3.500000e+00
     vertex 7.800000e+00 8.150000e+00 8.900000e+00
   endloop
 endfacet
 facet normal 0.000000e+00 -0.000000e+00 -1.000000e+00
   outer loop
     vertex 4.500000e-01 4.500000e-01 3.500000e+00
     vertex 7.800000e+00 0.000000e+00 3.500000e+00
     vertex 0.000000e+00 0.000000e+00 3.500000e+00
   endloop
 endfacet
 facet normal 0.000000e+00 0.000000e+00 -1.000000e+00
   outer loop
     vertex 4.500000e-01 4.500000e-01 3.500000e+00
     vertex 7.350000e+00 4.500000e-01 3.500000e+00
     vertex 7.800000e+00 0.000000e+00 3.500000e+00
   endloop
 endfacet
 facet normal 0.000000e+00 0.000000e+00 -1.000000e+00
   outer loop
     vertex 7.350000e+00 1.585000e+01 3.500000e+00
     vertex 7.800000e+00 1.630000e+01 3.500000e+00
     vertex 7.800000e+00 0.000000e+00 3.500000e+00
   endloop
 endfacet
 facet normal 0.000000e+00 0.000000e+00 -1.000000e+00
   outer loop
     vertex 7.350000e+00 1.585000e+01 3.500000e+00
     vertex 7.800000e+00 0.000000e+00 3.500000e+00
     vertex 7.350000e+00 4.500000e-01 3.500000e+00
   endloop
 endfacet
 facet normal 0.000000e+00 0.000000e+00 -1.000000e+00
   outer loop
     vertex 0.000000e+00 1.630000e+01 3.500000e+00
     vertex 7.350000e+00 1.585000e+01 3.500000e+00
     vertex 4.500000e-01 1.585000e+01 3.500000e+00
   endloop
 endfacet
 facet normal 0.000000e+00 0.000000e+00 -1.000000e+00
   outer loop
     vertex 0.000000e+00 1.630000e+01 3.500000e+00
     vertex 7.800000e+00 1.630000e+01 3.500000e+00
     vertex 7.350000e+00 1.585000e+01 3.500000e+00
   endloop
 endfacet
 facet normal 0.000000e+00 0.000000e+00 -1.000000e+00
   outer loop
     vertex 0.000000e+00 1.630000e+01 3.500000e+00
     vertex 4.500000e-01 4.500000e-01 3.500000e+00
     vertex 0.000000e+00 0.000000e+00 3.500000e+00
   endloop
 endfacet
 facet normal 0.000000e+00 0.000000e+00 -1.000000e+00
   outer loop
     vertex 0.000000e+00 1.630000e+01 3.500000e+00
     vertex 4.500000e-01 1.585000e+01 3.500000e+00
     vertex 4.500000e-01 4.500000e-01 3.500000e+00
   endloop
 endfacet
 facet normal 0.000000e+00 -5.523375e-01 8.336206e-01
   outer loop
     vertex 0.000000e+00 8.150000e+00 8.900000e+00
     vertex 3.900000e+00 5.282407e+00 7.000000e+00
     vertex 7.800000e+00 8.150000e+00 8.900000e+00
   endloop
 endfacet
 facet normal 5.776943e-14 -5.523375e-01 8.336206e-01
   outer loop
     vertex 7.800000e+00 0.000000e+00 3.500000e+00
     vertex 7.800000e+00 8.150000e+00 8.900000e+00
     vertex 3.900000e+00 5.282407e+00 7.000000e+00
   endloop
 endfacet
 facet normal -5.776943e-14 -5.523375e-01 8.336206e-01
   outer loop
     vertex 0.000000e+00 0.000000e+00 3.500000e+00
     vertex 3.900000e+00 5.282407e+00 7.000000e+00
     vertex 0.000000e+00 8.150000e+00 8.900000e+00
   endloop
 endfacet
 facet normal 5.744331e-14 5.523375e-01 8.336206e-01
   outer loop
     vertex 3.900000e+00 1.101759e+01 7.000000e+00
     vertex 7.800000e+00 8.150000e+00 8.900000e+00
     vertex 7.800000e+00 1.630000e+01 3.500000e+00
   endloop
 endfacet
 facet normal -5.748990e-14 5.523375e-01 8.336206e-01
   outer loop
     vertex 0.000000e+00 8.150000e+00 8.900000e+00
     vertex 3.900000e+00 1.101759e+01 7.000000e+00
     vertex 0.000000e+00 1.630000e+01 3.500000e+00
   endloop
 endfacet
 facet normal -0.000000e+00 5.523375e-01 8.336206e-01
   outer loop
     vertex 0.000000e+00 8.150000e+00 8.900000e+00
     vertex 7.800000e+00 8.150000e+00 8.900000e+00
     vertex 3.900000e+00 1.101759e+01 7.000000e+00
   endloop
 endfacet
 facet normal 0.000000e+00 -1.000000e+00 0.000000e+00
   outer loop
     vertex 7.800000e+00 0.000000e+00 3.500000e+00
     vertex 3.900000e+00 0.000000e+00 7.000000e+00
     vertex 0.000000e+00 0.000000e+00 3.500000e+00
   endloop
 endfacet
 facet normal 0.000000e+00 1.000000e+00 0.000000e+00
   outer loop
     vertex 7.800000e+00 1.630000e+01 3.500000e+00
     vertex 0.000000e+00 1.630000e+01 3.500000e+00
     vertex 3.900000e+00 1.630000e+01 7.000000e+00
   endloop
 endfacet
 facet normal -1.000000e+00 0.000000e+00 0.000000e+00
   outer loop
     vertex 0.000000e+00 0.000000e+00 3.500000e+00
     vertex 0.000000e+00 8.150000e+00 8.900000e+00
     vertex 0.000000e+00 1.630000e+01 3.500000e+00
   endloop
 endfacet
 facet normal 1.000000e+00 0.000000e+00 0.000000e+00
   outer loop
     vertex 7.350000e+00 1.585000e+01 0.000000e+00
     vertex 7.350000e+00 4.500000e-01 3.500000e+00
     vertex 7.350000e+00 4.500000e-01 0.000000e+00
   endloop
 endfacet
 facet normal 1.000000e+00 0.000000e+00 -0.000000e+00
   outer loop
     vertex 7.350000e+00 1.585000e+01 0.000000e+00
     vertex 7.350000e+00 1.585000e+01 3.500000e+00
     vertex 7.350000e+00 4.500000e-01 3.500000e+00
   endloop
 endfacet
 facet normal 0.000000e+00 1.000000e+00 0.000000e+00
   outer loop
     vertex 4.500000e-01 1.585000e+01 0.000000e+00
     vertex 7.350000e+00 1.585000e+01 3.500000e+00
     vertex 7.350000e+00 1.585000e+01 0.000000e+00
   endloop
 endfacet
 facet normal 0.000000e+00 1.000000e+00 0.000000e+00
   outer loop
     vertex 4.500000e-01 1.585000e+01 0.000000e+00
     vertex 4.500000e-01 1.585000e+01 3.500000e+00
     vertex 7.350000e+00 1.585000e+01 3.500000e+00
   endloop
 endfacet
 facet normal -1.000000e+00 0.000000e+00 0.000000e+00
   outer loop
     vertex 4.500000e-01 4.500000e-01 0.000000e+00
     vertex 4.500000e-01 1.585000e+01 3.500000e+00
     vertex 4.500000e-01 1.585000e+01 0.000000e+00
   endloop
 endfacet
 facet normal -1.000000e+00 0.000000e+00 0.000000e+00
   outer loop
     vertex 4.500000e-01 4.500000e-01 0.000000e+00
     vertex 4.500000e-01 4.500000e-01 3.500000e+00
     vertex 4.500000e-01 1.585000e+01 3.500000e+00
   endloop
 endfacet
 facet normal 0.000000e+00 -1.000000e+00 0.000000e+00
   outer loop
     vertex 7.350000e+00 4.500000e-01 0.000000e+00
     vertex 4.500000e-01 4.500000e-01 3.500000e+00
     vertex 4.500000e-01 4.500000e-01 0.000000e+00
   endloop
 endfacet
 facet normal 0.000000e+00 -1.000000e+00 0.000000e+00
   outer loop
     vertex 7.350000e+00 4.500000e-01 0.000000e+00
     vertex 7.350000e+00 4.500000e-01 3.500000e+00
     vertex 4.500000e-01 4.500000e-01 3.500000e+00
   endloop
 endfacet
 facet normal -6.679097e-01 0.000000e+00 7.442423e-01
   outer loop
     vertex 3.900000e+00 5.282407e+00 7.000000e+00
     vertex 0.000000e+00 0.000000e+00 3.500000e+00
     vertex 3.900000e+00 0.000000e+00 7.000000e+00
   endloop
 endfacet
 facet normal 6.679097e-01 0.000000e+00 7.442423e-01
   outer loop
     vertex 3.900000e+00 5.282407e+00 7.000000e+00
     vertex 3.900000e+00 0.000000e+00 7.000000e+00
     vertex 7.800000e+00 0.000000e+00 3.500000e+00
   endloop
 endfacet
 facet normal 6.679097e-01 0.000000e+00 7.442423e-01
   outer loop
     vertex 7.800000e+00 1.630000e+01 3.500000e+00
     vertex 3.900000e+00 1.630000e+01 7.000000e+00
     vertex 3.900000e+00 1.101759e+01 7.000000e+00
   endloop
 endfacet
 facet normal -6.679097e-01 0.000000e+00 7.442423e-01
   outer loop
     vertex 3.900000e+00 1.630000e+01 7.000000e+00
     vertex 0.000000e+00 1.630000e+01 3.500000e+00
     vertex 3.900000e+00 1.101759e+01 7.000000e+00
   endloop
 endfacet
 facet normal 0.000000e+00 0.000000e+00 -1.000000e+00
   outer loop
     vertex 4.500000e-01 1.585000e+01 0.000000e+00
     vertex 7.350000e+00 4.500000e-01 0.000000e+00
     vertex 4.500000e-01 4.500000e-01 0.000000e+00
   endloop
 endfacet
 facet normal -0.000000e+00 -0.000000e+00 -1.000000e+00
   outer loop
     vertex 7.350000e+00 1.585000e+01 0.000000e+00
     vertex 7.350000e+00 4.500000e-01 0.000000e+00
     vertex 4.500000e-01 1.585000e+01 0.000000e+00
   endloop
 endfacet
 facet normal 1.000000e+00 0.000000e+00 0.000000e+00
   outer loop
     vertex 7.800000e+00 2.000000e+01 6.500000e+00
     vertex 7.800000e+00 3.630000e+01 6.500000e+00
     vertex 7.800000e+00 2.815000e+01 1.190000e+01
   endloop
 endfacet
 facet normal 0.000000e+00 -0.000000e+00 -1.000000e+00
   outer loop
     vertex 4.500000e-01 2.045000e+01 6.500000e+00
     vertex 7.800000e+00 2.000000e+01 6.500000e+00
     vertex 0.000000e+00 2.000000e+01 6.500000e+00
   endloop
 endfacet
 facet normal 0.000000e+00 0.000000e+00 -1.000000e+00
   outer loop
     vertex 4.500000e-01 2.045000e+01 6.500000e+00
     vertex 7.350000e+00 2.045000e+01 6.500000e+00
     vertex 7.800000e+00 2.000000e+01 6.500000e+00
   endloop
 endfacet
 facet normal 0.000000e+00 -0.000000e+00 -1.000000e+00
   outer loop
     vertex 7.800000e+00 3.630000e+01 6.500000e+00
     vertex 7.800000e+00 2.000000e+01 6.500000e+00
     vertex 7.350000e+00 2.045000e+01 6.500000e+00
   endloop
 endfacet
 facet normal 0.000000e+00 0.000000e+00 -1.000000e+00
   outer loop
     vertex 7.350000e+00 3.585000e+01 6.500000e+00
     vertex 7.800000e+00 3.630000e+01 6.500000e+00
     vertex 7.350000e+00 2.045000e+01 6.500000e+00
   endloop
 endfacet
 facet normal 0.000000e+00 0.000000e+00 -1.000000e+00
   outer loop
     vertex 0.000000e+00 3.630000e+01 6.500000e+00
     vertex 7.350000e+00 3.585000e+01 6.500000e+00
     vertex 4.500000e-01 3.585000e+01 6.500000e+00
   endloop
 endfacet
 facet normal 0.000000e+00 0.000000e+00 -1.000000e+00
   outer loop
     vertex 0.000000e+00 3.630000e+01 6.500000e+00
     vertex 7.800000e+00 3.630000e+01 6.500000e+00
     vertex 7.350000e+00 3.585000e+01 6.500000e+00
   endloop
 endfacet
 facet normal 0.000000e+00 0.000000e+00 -1.000000e+00
   outer loop
     vertex 0.000000e+00 3.630000e+01 6.500000e+00
     vertex 4.500000e-01 2.045000e+01 6.500000e+00
     vertex 0.000000e+00 2.000000e+01 6.500000e+00
   endloop
 endfacet
 facet normal 0.000000e+00 0.000000e+00 -1.000000e+00
   outer loop
     vertex 0.000000e+00 3.630000e+01 6.500000e+00
     vertex 4.500000e-01 3.585000e+01 6.500000e+00
     vertex 4.500000e-01 2.045000e+01 6.500000e+00
   endloop
 endfacet
 facet normal 5.753649e-14 5.523375e-01 8.336206e-01
   outer loop
     vertex 3.900000e+00 3.101759e+01 1.000000e+01
     vertex 7.800000e+00 2.815000e+01 1.190000e+01
     vertex 7.800000e+00 3.630000e+01 6.500000e+00
   endloop
 endfacet
 facet normal -5.758308e-14 5.523375e-01 8.336206e-01
   outer loop
     vertex 0.000000e+00 2.815000e+01 1.190000e+01
     vertex 3.900000e+00 3.101759e+01 1.000000e+01
     vertex 0.000000e+00 3.630000e+01 6.500000e+00
   endloop
 endfacet
 facet normal -0.000000e+00 5.523375e-01 8.336206e-01
   outer loop
     vertex 0.000000e+00 2.815000e+01 1.190000e+01
     vertex 7.800000e+00 2.815000e+01 1.190000e+01
     vertex 3.900000e+00 3.101759e+01 1.000000e+01
   endloop
 endfacet
 facet normal 0.000000e+00 -5.523375e-01 8.336206e-01
   outer loop
     vertex 0.000000e+00 2.815000e+01 1.190000e+01
     vertex 3.900000e+00 2.528241e+01 1.000000e+01
     vertex 7.800000e+00 2.815000e+01 1.190000e+01
   endloop
 endfacet
 facet normal 5.758308e-14 -5.523375e-01 8.336206e-01
   outer loop
     vertex 7.800000e+00 2.000000e+01 6.500000e+00
     vertex 7.800000e+00 2.815000e+01 1.190000e+01
     vertex 3.900000e+00 2.528241e+01 1.000000e+01
   endloop
 endfacet
 facet normal -5.758308e-14 -5.523375e-01 8.336206e-01
   outer loop
     vertex 0.000000e+00 2.000000e+01 6.500000e+00
     vertex 3.900000e+00 2.528241e+01 1.000000e+01
     vertex 0.000000e+00 2.815000e+01 1.190000e+01
   endloop
 endfacet
 facet normal 0.000000e+00 1.000000e+00 0.000000e+00
   outer loop
     vertex 7.800000e+00 3.630000e+01 6.500000e+00
     vertex 0.000000e+00 3.630000e+01 6.500000e+00
     vertex 3.900000e+00 3.630000e+01 1.000000e+01
   endloop
 endfacet
 facet normal -1.000000e+00 0.000000e+00 0.000000e+00
   outer loop
     vertex 0.000000e+00 2.000000e+01 6.500000e+00
     vertex 0.000000e+00 2.815000e+01 1.190000e+01
     vertex 0.000000e+00 3.630000e+01 6.500000e+00
   endloop
 endfacet
 facet normal 0.000000e+00 -1.000000e+00 0.000000e+00
   outer loop
     vertex 7.800000e+00 2.000000e+01 6.500000e+00
     vertex 3.900000e+00 2.000000e+01 1.000000e+01
     vertex 0.000000e+00 2.000000e+01 6.500000e+00
   endloop
 endfacet
 facet normal 1.000000e+00 0.000000e+00 0.000000e+00
   outer loop
     vertex 7.350000e+00 3.585000e+01 3.000000e+00
     vertex 7.350000e+00 2.045000e+01 6.500000e+00
     vertex 7.350000e+00 2.045000e+01 3.000000e+00
   endloop
 endfacet
 facet normal 1.000000e+00 0.000000e+00 -0.000000e+00
   outer loop
     vertex 7.350000e+00 3.585000e+01 3.000000e+00
     vertex 7.350000e+00 3.585000e+01 6.500000e+00
     vertex 7.350000e+00 2.045000e+01 6.500000e+00
   endloop
 endfacet
 facet normal 0.000000e+00 -1.000000e+00 0.000000e+00
   outer loop
     vertex 7.350000e+00 2.045000e+01 3.000000e+00
     vertex 4.500000e-01 2.045000e+01 6.500000e+00
     vertex 4.500000e-01 2.045000e+01 3.000000e+00
   endloop
 endfacet
 facet normal 0.000000e+00 -1.000000e+00 0.000000e+00
   outer loop
     vertex 7.350000e+00 2.045000e+01 3.000000e+00
     vertex 7.350000e+00 2.045000e+01 6.500000e+00
     vertex 4.500000e-01 2.045000e+01 6.500000e+00
   endloop
 endfacet
 facet normal -1.000000e+00 0.000000e+00 0.000000e+00
   outer loop
     vertex 4.500000e-01 2.045000e+01 3.000000e+00
     vertex 4.500000e-01 3.585000e+01 6.500000e+00
     vertex 4.500000e-01 3.585000e+01 3.000000e+00
   endloop
 endfacet
 facet normal -1.000000e+00 0.000000e+00 0.000000e+00
   outer loop
     vertex 4.500000e-01 2.045000e+01 3.000000e+00
     vertex 4.500000e-01 2.045000e+01 6.500000e+00
     vertex 4.500000e-01 3.585000e+01 6.500000e+00
   endloop
 endfacet
 facet normal 0.000000e+00 1.000000e+00 0.000000e+00
   outer loop
     vertex 4.500000e-01 3.585000e+01 3.000000e+00
     vertex 7.350000e+00 3.585000e+01 6.500000e+00
     vertex 7.350000e+00 3.585000e+01 3.000000e+00
   endloop
 endfacet
 facet normal 0.000000e+00 1.000000e+00 0.000000e+00
   outer loop
     vertex 4.500000e-01 3.585000e+01 3.000000e+00
     vertex 4.500000e-01 3.585000e+01 6.500000e+00
     vertex 7.350000e+00 3.585000e+01 6.500000e+00
   endloop
 endfacet
 facet normal -6.679097e-01 0.000000e+00 7.442423e-01
   outer loop
     vertex 3.900000e+00 3.630000e+01 1.000000e+01
     vertex 0.000000e+00 3.630000e+01 6.500000e+00
     vertex 3.900000e+00 3.101759e+01 1.000000e+01
   endloop
 endfacet
 facet normal 6.679097e-01 0.000000e+00 7.442423e-01
   outer loop
     vertex 7.800000e+00 3.630000e+01 6.500000e+00
     vertex 3.900000e+00 3.630000e+01 1.000000e+01
     vertex 3.900000e+00 3.101759e+01 1.000000e+01
   endloop
 endfacet
 facet normal -6.679097e-01 0.000000e+00 7.442423e-01
   outer loop
     vertex 3.900000e+00 2.528241e+01 1.000000e+01
     vertex 0.000000e+00 2.000000e+01 6.500000e+00
     vertex 3.900000e+00 2.000000e+01 1.000000e+01
   endloop
 endfacet
 facet normal 6.679097e-01 0.000000e+00 7.442423e-01
   outer loop
     vertex 3.900000e+00 2.528241e+01 1.000000e+01
     vertex 3.900000e+00 2.000000e+01 1.000000e+01
     vertex 7.800000e+00 2.000000e+01 6.500000e+00
   endloop
 endfacet
 facet normal 0.000000e+00 -0.000000e+00 -1.000000e+00
   outer loop
     vertex 1.000000e+00 2.150000e+01 3.000000e+00
     vertex 1.000000e+00 2.100000e+01 3.000000e+00
     vertex 4.500000e-01 2.045000e+01 3.000000e+00
   endloop
 endfacet
 facet normal -0.000000e+00 0.000000e+00 -1.000000e+00
   outer loop
     vertex 1.500000e+00 2.100000e+01 3.000000e+00
     vertex 4.500000e-01 2.045000e+01 3.000000e+00
     vertex 1.000000e+00 2.100000e+01 3.000000e+00
   endloop
 endfacet
 facet normal 0.000000e+00 0.000000e+00 -1.000000e+00
   outer loop
     vertex 7.350000e+00 2.045000e+01 3.000000e+00
     vertex 6.300000e+00 2.100000e+01 3.000000e+00
     vertex 6.800000e+00 2.100000e+01 3.000000e+00
   endloop
 endfacet
 facet normal 0.000000e+00 0.000000e+00 -1.000000e+00
   outer loop
     vertex 7.350000e+00 2.045000e+01 3.000000e+00
     vertex 1.500000e+00 2.100000e+01 3.000000e+00
     vertex 6.300000e+00 2.100000e+01 3.000000e+00
   endloop
 endfacet
 facet normal 0.000000e+00 0.000000e+00 -1.000000e+00
   outer loop
     vertex 7.350000e+00 2.045000e+01 3.000000e+00
     vertex 4.500000e-01 2.045000e+01 3.000000e+00
     vertex 1.500000e+00 2.100000e+01 3.000000e+00
   endloop
 endfacet
 facet normal -0.000000e+00 0.000000e+00 -1.000000e+00
   outer loop
     vertex 6.300000e+00 2.150000e+01 3.000000e+00
     vertex 1.500000e+00 2.100000e+01 3.000000e+00
     vertex 1.500000e+00 2.150000e+01 3.000000e+00
   endloop
 endfacet
 facet normal 0.000000e+00 -0.000000e+00 -1.000000e+00
   outer loop
     vertex 6.300000e+00 2.150000e+01 3.000000e+00
     vertex 6.300000e+00 2.100000e+01 3.000000e+00
     vertex 1.500000e+00 2.100000e+01 3.000000e+00
   endloop
 endfacet
 facet normal 0.000000e+00 0.000000e+00 -1.000000e+00
   outer loop
     vertex 6.800000e+00 2.150000e+01 3.000000e+00
     vertex 7.350000e+00 2.045000e+01 3.000000e+00
     vertex 6.800000e+00 2.100000e+01 3.000000e+00
   endloop
 endfacet
 facet normal 0.000000e+00 -0.000000e+00 -1.000000e+00
   outer loop
     vertex 1.000000e+00 2.790000e+01 3.000000e+00
     vertex 1.000000e+00 2.150000e+01 3.000000e+00
     vertex 4.500000e-01 2.045000e+01 3.000000e+00
   endloop
 endfacet
 facet normal 0.000000e+00 -0.000000e+00 -1.000000e+00
   outer loop
     vertex 1.500000e+00 2.790000e+01 3.000000e+00
     vertex 1.500000e+00 2.150000e+01 3.000000e+00
     vertex 1.000000e+00 2.150000e+01 3.000000e+00
   endloop
 endfacet
 facet normal -0.000000e+00 0.000000e+00 -1.000000e+00
   outer loop
     vertex 1.500000e+00 2.790000e+01 3.000000e+00
     vertex 1.000000e+00 2.150000e+01 3.000000e+00
     vertex 1.000000e+00 2.790000e+01 3.000000e+00
   endloop
 endfacet
 facet normal 0.000000e+00 -0.000000e+00 -1.000000e+00
   outer loop
     vertex 6.300000e+00 2.790000e+01 3.000000e+00
     vertex 6.300000e+00 2.150000e+01 3.000000e+00
     vertex 1.500000e+00 2.150000e+01 3.000000e+00
   endloop
 endfacet
 facet normal -0.000000e+00 0.000000e+00 -1.000000e+00
   outer loop
     vertex 6.300000e+00 2.790000e+01 3.000000e+00
     vertex 1.500000e+00 2.150000e+01 3.000000e+00
     vertex 1.500000e+00 2.790000e+01 3.000000e+00
   endloop
 endfacet
 facet normal 0.000000e+00 -0.000000e+00 -1.000000e+00
   outer loop
     vertex 6.800000e+00 2.790000e+01 3.000000e+00
     vertex 6.800000e+00 2.150000e+01 3.000000e+00
     vertex 6.300000e+00 2.150000e+01 3.000000e+00
   endloop
 endfacet
 facet normal -0.000000e+00 0.000000e+00 -1.000000e+00
   outer loop
     vertex 6.800000e+00 2.790000e+01 3.000000e+00
     vertex 6.300000e+00 2.150000e+01 3.000000e+00
     vertex 6.300000e+00 2.790000e+01 3.000000e+00
   endloop
 endfacet
 facet normal 0.000000e+00 0.000000e+00 -1.000000e+00
   outer loop
     vertex 6.800000e+00 2.790000e+01 3.000000e+00
     vertex 7.350000e+00 2.045000e+01 3.000000e+00
     vertex 6.800000e+00 2.150000e+01 3.000000e+00
   endloop
 endfacet
 facet normal -0.000000e+00 0.000000e+00 -1.000000e+00
   outer loop
     vertex 6.300000e+00 2.840000e+01 3.000000e+00
     vertex 1.500000e+00 2.790000e+01 3.000000e+00
     vertex 1.500000e+00 2.840000e+01 3.000000e+00
   endloop
 endfacet
 facet normal 0.000000e+00 -0.000000e+00 -1.000000e+00
   outer loop
     vertex 6.300000e+00 2.840000e+01 3.000000e+00
     vertex 6.300000e+00 2.790000e+01 3.000000e+00
     vertex 1.500000e+00 2.790000e+01 3.000000e+00
   endloop
 endfacet
 facet normal 0.000000e+00 0.000000e+00 -1.000000e+00
   outer loop
     vertex 4.500000e-01 3.585000e+01 3.000000e+00
     vertex 1.000000e+00 3.480000e+01 3.000000e+00
     vertex 1.000000e+00 2.840000e+01 3.000000e+00
   endloop
 endfacet
 facet normal 0.000000e+00 -0.000000e+00 -1.000000e+00
   outer loop
     vertex 1.500000e+00 3.480000e+01 3.000000e+00
     vertex 1.500000e+00 2.840000e+01 3.000000e+00
     vertex 1.000000e+00 2.840000e+01 3.000000e+00
   endloop
 endfacet
 facet normal -0.000000e+00 0.000000e+00 -1.000000e+00
   outer loop
     vertex 1.500000e+00 3.480000e+01 3.000000e+00
     vertex 1.000000e+00 2.840000e+01 3.000000e+00
     vertex 1.000000e+00 3.480000e+01 3.000000e+00
   endloop
 endfacet
 facet normal -0.000000e+00 -0.000000e+00 -1.000000e+00
   outer loop
     vertex 1.000000e+00 3.530000e+01 3.000000e+00
     vertex 1.000000e+00 3.480000e+01 3.000000e+00
     vertex 4.500000e-01 3.585000e+01 3.000000e+00
   endloop
 endfacet
 facet normal 0.000000e+00 0.000000e+00 -1.000000e+00
   outer loop
     vertex 1.500000e+00 3.530000e+01 3.000000e+00
     vertex 1.000000e+00 3.530000e+01 3.000000e+00
     vertex 4.500000e-01 3.585000e+01 3.000000e+00
   endloop
 endfacet
 facet normal 0.000000e+00 -0.000000e+00 -1.000000e+00
   outer loop
     vertex 6.300000e+00 3.480000e+01 3.000000e+00
     vertex 6.300000e+00 2.840000e+01 3.000000e+00
     vertex 1.500000e+00 2.840000e+01 3.000000e+00
   endloop
 endfacet
 facet normal -0.000000e+00 0.000000e+00 -1.000000e+00
   outer loop
     vertex 6.300000e+00 3.480000e+01 3.000000e+00
     vertex 1.500000e+00 2.840000e+01 3.000000e+00
     vertex 1.500000e+00 3.480000e+01 3.000000e+00
   endloop
 endfacet
 facet normal 0.000000e+00 -0.000000e+00 -1.000000e+00
   outer loop
     vertex 6.800000e+00 3.480000e+01 3.000000e+00
     vertex 6.800000e+00 2.840000e+01 3.000000e+00
     vertex 6.300000e+00 2.840000e+01 3.000000e+00
   endloop
 endfacet
 facet normal -0.000000e+00 0.000000e+00 -1.000000e+00
   outer loop
     vertex 6.800000e+00 3.480000e+01 3.000000e+00
     vertex 6.300000e+00 2.840000e+01 3.000000e+00
     vertex 6.300000e+00 3.480000e+01 3.000000e+00
   endloop
 endfacet
 facet normal -0.000000e+00 0.000000e+00 -1.000000e+00
   outer loop
     vertex 6.300000e+00 3.530000e+01 3.000000e+00
     vertex 1.500000e+00 3.480000e+01 3.000000e+00
     vertex 1.500000e+00 3.530000e+01 3.000000e+00
   endloop
 endfacet
 facet normal 0.000000e+00 -0.000000e+00 -1.000000e+00
   outer loop
     vertex 6.300000e+00 3.530000e+01 3.000000e+00
     vertex 6.300000e+00 3.480000e+01 3.000000e+00
     vertex 1.500000e+00 3.480000e+01 3.000000e+00
   endloop
 endfacet
 facet normal 0.000000e+00 0.000000e+00 -1.000000e+00
   outer loop
     vertex 7.350000e+00 3.585000e+01 3.000000e+00
     vertex 6.800000e+00 3.530000e+01 3.000000e+00
     vertex 6.300000e+00 3.530000e+01 3.000000e+00
   endloop
 endfacet
 facet normal 0.000000e+00 0.000000e+00 -1.000000e+00
   outer loop
     vertex 7.350000e+00 3.585000e+01 3.000000e+00
     vertex 6.800000e+00 3.480000e+01 3.000000e+00
     vertex 6.800000e+00 3.530000e+01 3.000000e+00
   endloop
 endfacet
 facet normal 0.000000e+00 0.000000e+00 -1.000000e+00
   outer loop
     vertex 7.350000e+00 3.585000e+01 3.000000e+00
     vertex 6.800000e+00 2.840000e+01 3.000000e+00
     vertex 6.800000e+00 3.480000e+01 3.000000e+00
   endloop
 endfacet
 facet normal -0.000000e+00 0.000000e+00 -1.000000e+00
   outer loop
     vertex 7.350000e+00 3.585000e+01 3.000000e+00
     vertex 1.500000e+00 3.530000e+01 3.000000e+00
     vertex 4.500000e-01 3.585000e+01 3.000000e+00
   endloop
 endfacet
 facet normal 0.000000e+00 0.000000e+00 -1.000000e+00
   outer loop
     vertex 7.350000e+00 3.585000e+01 3.000000e+00
     vertex 6.300000e+00 3.530000e+01 3.000000e+00
     vertex 1.500000e+00 3.530000e+01 3.000000e+00
   endloop
 endfacet
 facet normal 0.000000e+00 0.000000e+00 -1.000000e+00
   outer loop
     vertex 7.350000e+00 2.045000e+01 3.000000e+00
     vertex 6.800000e+00 2.840000e+01 3.000000e+00
     vertex 7.350000e+00 3.585000e+01 3.000000e+00
   endloop
 endfacet
 facet normal 0.000000e+00 0.000000e+00 -1.000000e+00
   outer loop
     vertex 7.350000e+00 2.045000e+01 3.000000e+00
     vertex 6.800000e+00 2.790000e+01 3.000000e+00
     vertex 6.800000e+00 2.840000e+01 3.000000e+00
   endloop
 endfacet
 facet normal 0.000000e+00 0.000000e+00 -1.000000e+00
   outer loop
     vertex 4.500000e-01 3.585000e+01 3.000000e+00
     vertex 1.000000e+00 2.790000e+01 3.000000e+00
     vertex 4.500000e-01 2.045000e+01 3.000000e+00
   endloop
 endfacet
 facet normal 0.000000e+00 0.000000e+00 -1.000000e+00
   outer loop
     vertex 4.500000e-01 3.585000e+01 3.000000e+00
     vertex 1.000000e+00 2.840000e+01 3.000000e+00
     vertex 1.000000e+00 2.790000e+01 3.000000e+00
   endloop
 endfacet
 facet normal 0.000000e+00 -1.000000e+00 0.000000e+00
   outer loop
     vertex 6.800000e+00 2.790000e+01 0.000000e+00
     vertex 6.300000e+00 2.790000e+01 3.000000e+00
     vertex 6.300000e+00 2.790000e+01 0.000000e+00
   endloop
 endfacet
 facet normal 0.000000e+00 -1.000000e+00 0.000000e+00
   outer loop
     vertex 6.800000e+00 2.790000e+01 0.000000e+00
     vertex 6.800000e+00 2.790000e+01 3.000000e+00
     vertex 6.300000e+00 2.790000e+01 3.000000e+00
   endloop
 endfacet
 facet normal -1.000000e+00 0.000000e+00 0.000000e+00
   outer loop
     vertex 6.300000e+00 2.790000e+01 0.000000e+00
     vertex 6.300000e+00 2.840000e+01 3.000000e+00
     vertex 6.300000e+00 2.840000e+01 0.000000e+00
   endloop
 endfacet
 facet normal -1.000000e+00 0.000000e+00 0.000000e+00
   outer loop
     vertex 6.300000e+00 2.790000e+01 0.000000e+00
     vertex 6.300000e+00 2.790000e+01 3.000000e+00
     vertex 6.300000e+00 2.840000e+01 3.000000e+00
   endloop
 endfacet
 facet normal 1.000000e+00 0.000000e+00 0.000000e+00
   outer loop
     vertex 6.800000e+00 2.840000e+01 0.000000e+00
     vertex 6.800000e+00 2.790000e+01 3.000000e+00
     vertex 6.800000e+00 2.790000e+01 0.000000e+00
   endloop
 endfacet
 facet normal 1.000000e+00 0.000000e+00 -0.000000e+00
   outer loop
     vertex 6.800000e+00 2.840000e+01 0.000000e+00
     vertex 6.800000e+00 2.840000e+01 3.000000e+00
     vertex 6.800000e+00 2.790000e+01 3.000000e+00
   endloop
 endfacet
 facet normal 0.000000e+00 1.000000e+00 0.000000e+00
   outer loop
     vertex 6.300000e+00 2.840000e+01 0.000000e+00
     vertex 6.800000e+00 2.840000e+01 3.000000e+00
     vertex 6.800000e+00 2.840000e+01 0.000000e+00
   endloop
 endfacet
 facet normal 0.000000e+00 1.000000e+00 0.000000e+00
   outer loop
     vertex 6.300000e+00 2.840000e+01 0.000000e+00
     vertex 6.300000e+00 2.840000e+01 3.000000e+00
     vertex 6.800000e+00 2.840000e+01 3.000000e+00
   endloop
 endfacet
 facet normal 0.000000e+00 -1.000000e+00 0.000000e+00
   outer loop
     vertex 6.800000e+00 3.480000e+01 0.000000e+00
     vertex 6.300000e+00 3.480000e+01 3.000000e+00
     vertex 6.300000e+00 3.480000e+01 0.000000e+00
   endloop
 endfacet
 facet normal 0.000000e+00 -1.000000e+00 0.000000e+00
   outer loop
     vertex 6.800000e+00 3.480000e+01 0.000000e+00
     vertex 6.800000e+00 3.480000e+01 3.000000e+00
     vertex 6.300000e+00 3.480000e+01 3.000000e+00
   endloop
 endfacet
 facet normal 1.000000e+00 0.000000e+00 0.000000e+00
   outer loop
     vertex 6.800000e+00 3.530000e+01 0.000000e+00
     vertex 6.800000e+00 3.480000e+01 3.000000e+00
     vertex 6.800000e+00 3.480000e+01 0.000000e+00
   endloop
 endfacet
 facet normal 1.000000e+00 0.000000e+00 -0.000000e+00
   outer loop
     vertex 6.800000e+00 3.530000e+01 0.000000e+00
     vertex 6.800000e+00 3.530000e+01 3.000000e+00
     vertex 6.800000e+00 3.480000e+01 3.000000e+00
   endloop
 endfacet
 facet normal 0.000000e+00 1.000000e+00 0.000000e+00
   outer loop
     vertex 6.300000e+00 3.530000e+01 0.000000e+00
     vertex 6.800000e+00 3.530000e+01 3.000000e+00
     vertex 6.800000e+00 3.530000e+01 0.000000e+00
   endloop
 endfacet
 facet normal 0.000000e+00 1.000000e+00 0.000000e+00
   outer loop
     vertex 6.300000e+00 3.530000e+01 0.000000e+00
     vertex 6.300000e+00 3.530000e+01 3.000000e+00
     vertex 6.800000e+00 3.530000e+01 3.000000e+00
   endloop
 endfacet
 facet normal -1.000000e+00 0.000000e+00 0.000000e+00
   outer loop
     vertex 6.300000e+00 3.480000e+01 0.000000e+00
     vertex 6.300000e+00 3.530000e+01 3.000000e+00
     vertex 6.300000e+00 3.530000e+01 0.000000e+00
   endloop
 endfacet
 facet normal -1.000000e+00 0.000000e+00 0.000000e+00
   outer loop
     vertex 6.300000e+00 3.480000e+01 0.000000e+00
     vertex 6.300000e+00 3.480000e+01 3.000000e+00
     vertex 6.300000e+00 3.530000e+01 3.000000e+00
   endloop
 endfacet
 facet normal 0.000000e+00 -1.000000e+00 0.000000e+00
   outer loop
     vertex 1.500000e+00 3.480000e+01 0.000000e+00
     vertex 1.000000e+00 3.480000e+01 3.000000e+00
     vertex 1.000000e+00 3.480000e+01 0.000000e+00
   endloop
 endfacet
 facet normal 0.000000e+00 -1.000000e+00 0.000000e+00
   outer loop
     vertex 1.500000e+00 3.480000e+01 0.000000e+00
     vertex 1.500000e+00 3.480000e+01 3.000000e+00
     vertex 1.000000e+00 3.480000e+01 3.000000e+00
   endloop
 endfacet
 facet normal -1.000000e+00 0.000000e+00 0.000000e+00
   outer loop
     vertex 1.000000e+00 3.480000e+01 0.000000e+00
     vertex 1.000000e+00 3.530000e+01 3.000000e+00
     vertex 1.000000e+00 3.530000e+01 0.000000e+00
   endloop
 endfacet
 facet normal -1.000000e+00 0.000000e+00 0.000000e+00
   outer loop
     vertex 1.000000e+00 3.480000e+01 0.000000e+00
     vertex 1.000000e+00 3.480000e+01 3.000000e+00
     vertex 1.000000e+00 3.530000e+01 3.000000e+00
   endloop
 endfacet
 facet normal 1.000000e+00 0.000000e+00 0.000000e+00
   outer loop
     vertex 1.500000e+00 3.530000e+01 0.000000e+00
     vertex 1.500000e+00 3.480000e+01 3.000000e+00
     vertex 1.500000e+00 3.480000e+01 0.000000e+00
   endloop
 endfacet
 facet normal 1.000000e+00 0.000000e+00 -0.000000e+00
   outer loop
     vertex 1.500000e+00 3.530000e+01 0.000000e+00
     vertex 1.500000e+00 3.530000e+01 3.000000e+00
     vertex 1.500000e+00 3.480000e+01 3.000000e+00
   endloop
 endfacet
 facet normal 0.000000e+00 1.000000e+00 0.000000e+00
   outer loop
     vertex 1.000000e+00 3.530000e+01 0.000000e+00
     vertex 1.500000e+00 3.530000e+01 3.000000e+00
     vertex 1.500000e+00 3.530000e+01 0.000000e+00
   endloop
 endfacet
 facet normal 0.000000e+00 1.000000e+00 0.000000e+00
   outer loop
     vertex 1.000000e+00 3.530000e+01 0.000000e+00
     vertex 1.000000e+00 3.530000e+01 3.000000e+00
     vertex 1.500000e+00 3.530000e+01 3.000000e+00
   endloop
 endfacet
 facet normal 0.000000e+00 -1.000000e+00 0.000000e+00
   outer loop
     vertex 1.500000e+00 2.790000e+01 0.000000e+00
     vertex 1.000000e+00 2.790000e+01 3.000000e+00
     vertex 1.000000e+00 2.790000e+01 0.000000e+00
   endloop
 endfacet
 facet normal 0.000000e+00 -1.000000e+00 0.000000e+00
   outer loop
     vertex 1.500000e+00 2.790000e+01 0.000000e+00
     vertex 1.500000e+00 2.790000e+01 3.000000e+00
     vertex 1.000000e+00 2.790000e+01 3.000000e+00
   endloop
 endfacet
 facet normal -1.000000e+00 0.000000e+00 0.000000e+00
   outer loop
     vertex 1.000000e+00 2.790000e+01 0.000000e+00
     vertex 1.000000e+00 2.840000e+01 3.000000e+00
     vertex 1.000000e+00 2.840000e+01 0.000000e+00
   endloop
 endfacet
 facet normal -1.000000e+00 0.000000e+00 0.000000e+00
   outer loop
     vertex 1.000000e+00 2.790000e+01 0.000000e+00
     vertex 1.000000e+00 2.790000e+01 3.000000e+00
     vertex 1.000000e+00 2.840000e+01 3.000000e+00
   endloop
 endfacet
 facet normal 1.000000e+00 0.000000e+00 0.000000e+00
   outer loop
     vertex 1.500000e+00 2.840000e+01 0.000000e+00
     vertex 1.500000e+00 2.790000e+01 3.000000e+00
     vertex 1.500000e+00 2.790000e+01 0.000000e+00
   endloop
 endfacet
 facet normal 1.000000e+00 0.000000e+00 -0.000000e+00
   outer loop
     vertex 1.500000e+00 2.840000e+01 0.000000e+00
     vertex 1.500000e+00 2.840000e+01 3.000000e+00
     vertex 1.500000e+00 2.790000e+01 3.000000e+00
   endloop
 endfacet
 facet normal 0.000000e+00 1.000000e+00 0.000000e+00
   outer loop
     vertex 1.000000e+00 2.840000e+01 0.000000e+00
     vertex 1.500000e+00 2.840000e+01 3.000000e+00
     vertex 1.500000e+00 2.840000e+01 0.000000e+00
   endloop
 endfacet
 facet normal 0.000000e+00 1.000000e+00 0.000000e+00
   outer loop
     vertex 1.000000e+00 2.840000e+01 0.000000e+00
     vertex 1.000000e+00 2.840000e+01 3.000000e+00
     vertex 1.500000e+00 2.840000e+01 3.000000e+00
   endloop
 endfacet
 facet normal 0.000000e+00 -1.000000e+00 0.000000e+00
   outer loop
     vertex 6.800000e+00 2.100000e+01 0.000000e+00
     vertex 6.300000e+00 2.100000e+01 3.000000e+00
     vertex 6.300000e+00 2.100000e+01 0.000000e+00
   endloop
 endfacet
 facet normal 0.000000e+00 -1.000000e+00 0.000000e+00
   outer loop
     vertex 6.800000e+00 2.100000e+01 0.000000e+00
     vertex 6.800000e+00 2.100000e+01 3.000000e+00
     vertex 6.300000e+00 2.100000e+01 3.000000e+00
   endloop
 endfacet
 facet normal -1.000000e+00 0.000000e+00 0.000000e+00
   outer loop
     vertex 6.300000e+00 2.100000e+01 0.000000e+00
     vertex 6.300000e+00 2.150000e+01 3.000000e+00
     vertex 6.300000e+00 2.150000e+01 0.000000e+00
   endloop
 endfacet
 facet normal -1.000000e+00 0.000000e+00 0.000000e+00
   outer loop
     vertex 6.300000e+00 2.100000e+01 0.000000e+00
     vertex 6.300000e+00 2.100000e+01 3.000000e+00
     vertex 6.300000e+00 2.150000e+01 3.000000e+00
   endloop
 endfacet
 facet normal 1.000000e+00 0.000000e+00 0.000000e+00
   outer loop
     vertex 6.800000e+00 2.150000e+01 0.000000e+00
     vertex 6.800000e+00 2.100000e+01 3.000000e+00
     vertex 6.800000e+00 2.100000e+01 0.000000e+00
   endloop
 endfacet
 facet normal 1.000000e+00 0.000000e+00 -0.000000e+00
   outer loop
     vertex 6.800000e+00 2.150000e+01 0.000000e+00
     vertex 6.800000e+00 2.150000e+01 3.000000e+00
     vertex 6.800000e+00 2.100000e+01 3.000000e+00
   endloop
 endfacet
 facet normal 0.000000e+00 1.000000e+00 0.000000e+00
   outer loop
     vertex 6.300000e+00 2.150000e+01 0.000000e+00
     vertex 6.800000e+00 2.150000e+01 3.000000e+00
     vertex 6.800000e+00 2.150000e+01 0.000000e+00
   endloop
 endfacet
 facet normal 0.000000e+00 1.000000e+00 0.000000e+00
   outer loop
     vertex 6.300000e+00 2.150000e+01 0.000000e+00
     vertex 6.300000e+00 2.150000e+01 3.000000e+00
     vertex 6.800000e+00 2.150000e+01 3.000000e+00
   endloop
 endfacet
 facet normal 0.000000e+00 -1.000000e+00 0.000000e+00
   outer loop
     vertex 1.500000e+00 2.100000e+01 0.000000e+00
     vertex 1.000000e+00 2.100000e+01 3.000000e+00
     vertex 1.000000e+00 2.100000e+01 0.000000e+00
   endloop
 endfacet
 facet normal 0.000000e+00 -1.000000e+00 0.000000e+00
   outer loop
     vertex 1.500000e+00 2.100000e+01 0.000000e+00
     vertex 1.500000e+00 2.100000e+01 3.000000e+00
     vertex 1.000000e+00 2.100000e+01 3.000000e+00
   endloop
 endfacet
 facet normal -1.000000e+00 0.000000e+00 0.000000e+00
   outer loop
     vertex 1.000000e+00 2.100000e+01 0.000000e+00
     vertex 1.000000e+00 2.150000e+01 3.000000e+00
     vertex 1.000000e+00 2.150000e+01 0.000000e+00
   endloop
 endfacet
 facet normal -1.000000e+00 0.000000e+00 0.000000e+00
   outer loop
     vertex 1.000000e+00 2.100000e+01 0.000000e+00
     vertex 1.000000e+00 2.100000e+01 3.000000e+00
     vertex 1.000000e+00 2.150000e+01 3.000000e+00
   endloop
 endfacet
 facet normal 1.000000e+00 0.000000e+00 0.000000e+00
   outer loop
     vertex 1.500000e+00 2.150000e+01 0.000000e+00
     vertex 1.500000e+00 2.100000e+01 3.000000e+00
     vertex 1.500000e+00 2.100000e+01 0.000000e+00
   endloop
 endfacet
 facet normal 1.000000e+00 0.000000e+00 -0.000000e+00
   outer loop
     vertex 1.500000e+00 2.150000e+01 0.000000e+00
     vertex 1.500000e+00 2.150000e+01 3.000000e+00
     vertex 1.500000e+00 2.100000e+01 3.000000e+00
   endloop
 endfacet
 facet normal 0.000000e+00 1.000000e+00 0.000000e+00
   outer loop
     vertex 1.000000e+00 2.150000e+01 0.000000e+00
     vertex 1.500000e+00 2.150000e+01 3.000000e+00
     vertex 1.500000e+00 2.150000e+01 0.000000e+00
   endloop
 endfacet
 facet normal 0.000000e+00 1.000000e+00 0.000000e+00
   outer loop
     vertex 1.000000e+00 2.150000e+01 0.000000e+00
     vertex 1.000000e+00 2.150000e+01 3.000000e+00
     vertex 1.500000e+00 2.150000e+01 3.000000e+00
   endloop
 endfacet
 facet normal 0.000000e+00 -0.000000e+00 -1.000000e+00
   outer loop
     vertex 6.800000e+00 2.840000e+01 0.000000e+00
     vertex 6.800000e+00 2.790000e+01 0.000000e+00
     vertex 6.300000e+00 2.790000e+01 0.000000e+00
   endloop
 endfacet
 facet normal -0.000000e+00 0.000000e+00 -1.000000e+00
   outer loop
     vertex 6.800000e+00 2.840000e+01 0.000000e+00
     vertex 6.300000e+00 2.790000e+01 0.000000e+00
     vertex 6.300000e+00 2.840000e+01 0.000000e+00
   endloop
 endfacet
 facet normal 0.000000e+00 -0.000000e+00 -1.000000e+00
   outer loop
     vertex 6.800000e+00 3.530000e+01 0.000000e+00
     vertex 6.800000e+00 3.480000e+01 0.000000e+00
     vertex 6.300000e+00 3.480000e+01 0.000000e+00
   endloop
 endfacet
 facet normal -0.000000e+00 0.000000e+00 -1.000000e+00
   outer loop
     vertex 6.800000e+00 3.530000e+01 0.000000e+00
     vertex 6.300000e+00 3.480000e+01 0.000000e+00
     vertex 6.300000e+00 3.530000e+01 0.000000e+00
   endloop
 endfacet
 facet normal 0.000000e+00 -0.000000e+00 -1.000000e+00
   outer loop
     vertex 1.500000e+00 3.530000e+01 0.000000e+00
     vertex 1.500000e+00 3.480000e+01 0.000000e+00
     vertex 1.000000e+00 3.480000e+01 0.000000e+00
   endloop
 endfacet
 facet normal -0.000000e+00 0.000000e+00 -1.000000e+00
   outer loop
     vertex 1.500000e+00 3.530000e+01 0.000000e+00
     vertex 1.000000e+00 3.480000e+01 0.000000e+00
     vertex 1.000000e+00 3.530000e+01 0.000000e+00
   endloop
 endfacet
 facet normal 0.000000e+00 -0.000000e+00 -1.000000e+00
   outer loop
     vertex 1.500000e+00 2.840000e+01 0.000000e+00
     vertex 1.500000e+00 2.790000e+01 0.000000e+00
     vertex 1.000000e+00 2.790000e+01 0.000000e+00
   endloop
 endfacet
 facet normal -0.000000e+00 0.000000e+00 -1.000000e+00
   outer loop
     vertex 1.500000e+00 2.840000e+01 0.000000e+00
     vertex 1.000000e+00 2.790000e+01 0.000000e+00
     vertex 1.000000e+00 2.840000e+01 0.000000e+00
   endloop
 endfacet
 facet normal 0.000000e+00 -0.000000e+00 -1.000000e+00
   outer loop
     vertex 6.800000e+00 2.150000e+01 0.000000e+00
     vertex 6.800000e+00 2.100000e+01 0.000000e+00
     vertex 6.300000e+00 2.100000e+01 0.000000e+00
   endloop
 endfacet
 facet normal -0.000000e+00 0.000000e+00 -1.000000e+00
   outer loop
     vertex 6.800000e+00 2.150000e+01 0.000000e+00
     vertex 6.300000e+00 2.100000e+01 0.000000e+00
     vertex 6.300000e+00 2.150000e+01 0.000000e+00
   endloop
 endfacet
 facet normal 0.000000e+00 -0.000000e+00 -1.000000e+00
   outer loop
     vertex 1.500000e+00 2.150000e+01 0.000000e+00
     vertex 1.500000e+00 2.100000e+01 0.000000e+00
     vertex 1.000000e+00 2.100000e+01 0.000000e+00
   endloop
 endfacet
 facet normal -0.000000e+00 0.000000e+00 -1.000000e+00
   outer loop
     vertex 1.500000e+00 2.150000e+01 0.000000e+00
     vertex 1.000000e+00 2.100000e+01 0.000000e+00
     vertex 1.000000e+00 2.150000e+01 0.000000e+00
   endloop
 endfacet
 facet normal 0.000000e+00 1.000000e+00 0.000000e+00
   outer loop
     vertex 3.260000e+01 1.740000e+01 3.100000e+00
     vertex 2.410000e+01 1.740000e+01 3.100000e+00
     vertex 2.835000e+01 1.740000e+01 4.600000e+00
   endloop
 endfacet
 facet normal -0.000000e+00 0.000000e+00 -1.000000e+00
   outer loop
     vertex 2.440000e+01 1.710000e+01 3.100000e+00
     vertex 2.410000e+01 1.070000e+01 3.100000e+00
     vertex 2.410000e+01 1.740000e+01 3.100000e+00
   endloop
 endfacet
 facet normal 0.000000e+00 -0.000000e+00 -1.000000e+00
   outer loop
     vertex 2.440000e+01 1.710000e+01 3.100000e+00
     vertex 2.440000e+01 1.070000e+01 3.100000e+00
     vertex 2.410000e+01 1.070000e+01 3.100000e+00
   endloop
 endfacet
 facet normal 0.000000e+00 0.000000e+00 -1.000000e+00
   outer loop
     vertex 3.230000e+01 1.710000e+01 3.100000e+00
     vertex 3.260000e+01 1.070000e+01 3.100000e+00
     vertex 3.230000e+01 1.070000e+01 3.100000e+00
   endloop
 endfacet
 facet normal 0.000000e+00 -0.000000e+00 -1.000000e+00
   outer loop
     vertex 3.260000e+01 1.740000e+01 3.100000e+00
     vertex 3.260000e+01 1.070000e+01 3.100000e+00
     vertex 3.230000e+01 1.710000e+01 3.100000e+00
   endloop
 endfacet
 facet normal -0.000000e+00 0.000000e+00 -1.000000e+00
   outer loop
     vertex 3.260000e+01 1.740000e+01 3.100000e+00
     vertex 2.440000e+01 1.710000e+01 3.100000e+00
     vertex 2.410000e+01 1.740000e+01 3.100000e+00
   endloop
 endfacet
 facet normal 0.000000e+00 0.000000e+00 -1.000000e+00
   outer loop
     vertex 3.260000e+01 1.740000e+01 3.100000e+00
     vertex 3.230000e+01 1.710000e+01 3.100000e+00
     vertex 2.440000e+01 1.710000e+01 3.100000e+00
   endloop
 endfacet
 facet normal -3.328201e-01 0.000000e+00 9.429903e-01
   outer loop
     vertex 2.835000e+01 1.740000e+01 4.600000e+00
     vertex 2.410000e+01 1.740000e+01 3.100000e+00
     vertex 2.410000e+01 1.070000e+01 3.100000e+00
   endloop
 endfacet
 facet normal -3.328201e-01 0.000000e+00 9.429903e-01
   outer loop
     vertex 2.835000e+01 1.740000e+01 4.600000e+00
     vertex 2.410000e+01 1.070000e+01 3.100000e+00
     vertex 2.835000e+01 1.070000e+01 4.600000e+00
   endloop
 endfacet
 facet normal 3.328201e-01 0.000000e+00 9.429903e-01
   outer loop
     vertex 2.835000e+01 1.740000e+01 4.600000e+00
     vertex 2.835000e+01 1.070000e+01 4.600000e+00
     vertex 3.230000e+01 1.070000e+01 3.205882e+00
   endloop
 endfacet
 facet normal 3.328201e-01 0.000000e+00 9.429903e-01
   outer loop
     vertex 3.260000e+01 1.740000e+01 3.100000e+00
     vertex 3.230000e+01 1.070000e+01 3.205882e+00
     vertex 3.260000e+01 1.070000e+01 3.100000e+00
   endloop
 endfacet
 facet normal 3.328201e-01 -2.507484e-14 9.429903e-01
   outer loop
     vertex 3.260000e+01 1.740000e+01 3.100000e+00
     vertex 2.835000e+01 1.740000e+01 4.600000e+00
     vertex 3.230000e+01 1.070000e+01 3.205882e+00
   endloop
 endfacet
 facet normal 0.000000e+00 -1.000000e+00 0.000000e+00
   outer loop
     vertex 3.260000e+01 1.070000e+01 3.100000e+00
     vertex 3.230000e+01 1.070000e+01 3.205882e+00
     vertex 3.230000e+01 1.070000e+01 3.100000e+00
   endloop
 endfacet
 facet normal 0.000000e+00 1.000000e+00 0.000000e+00
   outer loop
     vertex 2.410000e+01 1.070000e+01 3.100000e+00
     vertex 2.030000e+01 1.070000e+01 0.000000e+00
     vertex 2.030000e+01 1.070000e+01 4.600000e+00
   endloop
 endfacet
 facet normal 0.000000e+00 1.000000e+00 0.000000e+00
   outer loop
     vertex 2.410000e+01 1.070000e+01 3.100000e+00
     vertex 2.440000e+01 1.070000e+01 0.000000e+00
     vertex 2.030000e+01 1.070000e+01 0.000000e+00
   endloop
 endfacet
 facet normal 0.000000e+00 1.000000e+00 0.000000e+00
   outer loop
     vertex 2.440000e+01 1.070000e+01 3.100000e+00
     vertex 2.440000e+01 1.070000e+01 0.000000e+00
     vertex 2.410000e+01 1.070000e+01 3.100000e+00
   endloop
 endfacet
 facet normal 0.000000e+00 1.000000e+00 0.000000e+00
   outer loop
     vertex 2.290000e+01 1.070000e+01 7.500000e+00
     vertex 2.030000e+01 1.070000e+01 4.600000e+00
     vertex 2.000000e+01 1.070000e+01 4.600000e+00
   endloop
 endfacet
 facet normal 0.000000e+00 1.000000e+00 0.000000e+00
   outer loop
     vertex 2.290000e+01 1.070000e+01 7.500000e+00
     vertex 2.410000e+01 1.070000e+01 3.100000e+00
     vertex 2.030000e+01 1.070000e+01 4.600000e+00
   endloop
 endfacet
 facet normal 0.000000e+00 1.000000e+00 0.000000e+00
   outer loop
     vertex 2.580000e+01 1.070000e+01 4.600000e+00
     vertex 2.410000e+01 1.070000e+01 3.100000e+00
     vertex 2.290000e+01 1.070000e+01 7.500000e+00
   endloop
 endfacet
 facet normal 0.000000e+00 1.000000e+00 0.000000e+00
   outer loop
     vertex 2.835000e+01 1.070000e+01 4.600000e+00
     vertex 2.410000e+01 1.070000e+01 3.100000e+00
     vertex 2.580000e+01 1.070000e+01 4.600000e+00
   endloop
 endfacet
 facet normal 1.000000e+00 0.000000e+00 -0.000000e+00
   outer loop
     vertex 3.230000e+01 1.070000e+01 3.205882e+00
     vertex 3.230000e+01 1.070000e+01 4.600000e+00
     vertex 3.230000e+01 2.500000e+00 4.600000e+00
   endloop
 endfacet
 facet normal 1.000000e+00 0.000000e+00 0.000000e+00
   outer loop
     vertex 3.230000e+01 1.070000e+01 3.100000e+00
     vertex 3.230000e+01 2.500000e+00 4.600000e+00
     vertex 3.230000e+01 2.500000e+00 0.000000e+00
   endloop
 endfacet
 facet normal 1.000000e+00 0.000000e+00 -0.000000e+00
   outer loop
     vertex 3.230000e+01 1.070000e+01 3.100000e+00
     vertex 3.230000e+01 1.070000e+01 3.205882e+00
     vertex 3.230000e+01 2.500000e+00 4.600000e+00
   endloop
 endfacet
 facet normal 1.000000e+00 0.000000e+00 -0.000000e+00
   outer loop
     vertex 3.230000e+01 1.710000e+01 0.000000e+00
     vertex 3.230000e+01 1.710000e+01 3.100000e+00
     vertex 3.230000e+01 1.070000e+01 3.100000e+00
   endloop
 endfacet
 facet normal 1.000000e+00 0.000000e+00 0.000000e+00
   outer loop
     vertex 3.230000e+01 1.710000e+01 0.000000e+00
     vertex 3.230000e+01 1.070000e+01 3.100000e+00
     vertex 3.230000e+01 2.500000e+00 0.000000e+00
   endloop
 endfacet
 facet normal -1.000000e+00 0.000000e+00 0.000000e+00
   outer loop
     vertex 2.440000e+01 1.710000e+01 0.000000e+00
     vertex 2.440000e+01 1.070000e+01 0.000000e+00
     vertex 2.440000e+01 1.070000e+01 3.100000e+00
   endloop
 endfacet
 facet normal -1.000000e+00 0.000000e+00 0.000000e+00
   outer loop
     vertex 2.440000e+01 1.710000e+01 0.000000e+00
     vertex 2.440000e+01 1.070000e+01 3.100000e+00
     vertex 2.440000e+01 1.710000e+01 3.100000e+00
   endloop
 endfacet
 facet normal 0.000000e+00 1.000000e+00 0.000000e+00
   outer loop
     vertex 2.440000e+01 1.710000e+01 0.000000e+00
     vertex 3.230000e+01 1.710000e+01 3.100000e+00
     vertex 3.230000e+01 1.710000e+01 0.000000e+00
   endloop
 endfacet
 facet normal 0.000000e+00 1.000000e+00 0.000000e+00
   outer loop
     vertex 2.440000e+01 1.710000e+01 0.000000e+00
     vertex 2.440000e+01 1.710000e+01 3.100000e+00
     vertex 3.230000e+01 1.710000e+01 3.100000e+00
   endloop
 endfacet
 facet normal 0.000000e+00 1.000000e+00 0.000000e+00
   outer loop
     vertex 3.230000e+01 1.070000e+01 4.600000e+00
     vertex 3.230000e+01 1.070000e+01 3.205882e+00
     vertex 2.835000e+01 1.070000e+01 4.600000e+00
   endloop
 endfacet
 facet normal -1.000000e+00 0.000000e+00 0.000000e+00
   outer loop
     vertex 2.030000e+01 1.070000e+01 0.000000e+00
     vertex 2.030000e+01 3.000000e-01 0.000000e+00
     vertex 2.030000e+01 3.000000e-01 4.600000e+00
   endloop
 endfacet
 facet normal -1.000000e+00 0.000000e+00 0.000000e+00
   outer loop
     vertex 2.030000e+01 1.070000e+01 0.000000e+00
     vertex 2.030000e+01 3.000000e-01 4.600000e+00
     vertex 2.030000e+01 1.070000e+01 4.600000e+00
   endloop
 endfacet
 facet normal 0.000000e+00 -0.000000e+00 -1.000000e+00
   outer loop
     vertex 2.550000e+01 2.500000e+00 0.000000e+00
     vertex 2.550000e+01 3.000000e-01 0.000000e+00
     vertex 2.030000e+01 3.000000e-01 0.000000e+00
   endloop
 endfacet
 facet normal 0.000000e+00 0.000000e+00 -1.000000e+00
   outer loop
     vertex 2.030000e+01 1.070000e+01 0.000000e+00
     vertex 2.550000e+01 2.500000e+00 0.000000e+00
     vertex 2.030000e+01 3.000000e-01 0.000000e+00
   endloop
 endfacet
 facet normal 0.000000e+00 0.000000e+00 -1.000000e+00
   outer loop
     vertex 2.440000e+01 1.070000e+01 0.000000e+00
     vertex 3.230000e+01 2.500000e+00 0.000000e+00
     vertex 2.550000e+01 2.500000e+00 0.000000e+00
   endloop
 endfacet
 facet normal -0.000000e+00 -0.000000e+00 -1.000000e+00
   outer loop
     vertex 2.440000e+01 1.070000e+01 0.000000e+00
     vertex 2.550000e+01 2.500000e+00 0.000000e+00
     vertex 2.030000e+01 1.070000e+01 0.000000e+00
   endloop
 endfacet
 facet normal -0.000000e+00 0.000000e+00 -1.000000e+00
   outer loop
     vertex 3.230000e+01 1.710000e+01 0.000000e+00
     vertex 2.440000e+01 1.070000e+01 0.000000e+00
     vertex 2.440000e+01 1.710000e+01 0.000000e+00
   endloop
 endfacet
 facet normal 0.000000e+00 -0.000000e+00 -1.000000e+00
   outer loop
     vertex 3.230000e+01 1.710000e+01 0.000000e+00
     vertex 3.230000e+01 2.500000e+00 0.000000e+00
     vertex 2.440000e+01 1.070000e+01 0.000000e+00
   endloop
 endfacet
 facet normal 0.000000e+00 5.774647e-01 8.164156e-01
   outer loop
     vertex 3.260000e+01 6.600000e+00 7.500000e+00
     vertex 3.230000e+01 1.070000e+01 4.600000e+00
     vertex 2.835000e+01 1.070000e+01 4.600000e+00
   endloop
 endfacet
 facet normal 0.000000e+00 5.774647e-01 8.164156e-01
   outer loop
     vertex 3.260000e+01 6.600000e+00 7.500000e+00
     vertex 3.260000e+01 1.070000e+01 4.600000e+00
     vertex 3.230000e+01 1.070000e+01 4.600000e+00
   endloop
 endfacet
 facet normal 0.000000e+00 5.774647e-01 8.164156e-01
   outer loop
     vertex 2.290000e+01 6.600000e+00 7.500000e+00
     vertex 2.835000e+01 1.070000e+01 4.600000e+00
     vertex 2.580000e+01 1.070000e+01 4.600000e+00
   endloop
 endfacet
 facet normal -0.000000e+00 5.774647e-01 8.164156e-01
   outer loop
     vertex 2.290000e+01 6.600000e+00 7.500000e+00
     vertex 3.260000e+01 6.600000e+00 7.500000e+00
     vertex 2.835000e+01 1.070000e+01 4.600000e+00
   endloop
 endfacet
 facet normal 7.071068e-01 -0.000000e+00 7.071068e-01
   outer loop
     vertex 2.290000e+01 6.600000e+00 7.500000e+00
     vertex 2.580000e+01 1.070000e+01 4.600000e+00
     vertex 2.290000e+01 1.070000e+01 7.500000e+00
   endloop
 endfacet
 facet normal -7.071068e-01 0.000000e+00 7.071068e-01
   outer loop
     vertex 2.000000e+01 1.070000e+01 4.600000e+00
     vertex 2.290000e+01 6.600000e+00 7.500000e+00
     vertex 2.290000e+01 1.070000e+01 7.500000e+00
   endloop
 endfacet
 facet normal -7.071068e-01 0.000000e+00 7.071068e-01
   outer loop
     vertex 2.000000e+01 0.000000e+00 4.600000e+00
     vertex 2.290000e+01 0.000000e+00 7.500000e+00
     vertex 2.290000e+01 6.600000e+00 7.500000e+00
   endloop
 endfacet
 facet normal -7.071068e-01 0.000000e+00 7.071068e-01
   outer loop
     vertex 2.000000e+01 0.000000e+00 4.600000e+00
     vertex 2.290000e+01 6.600000e+00 7.500000e+00
     vertex 2.000000e+01 1.070000e+01 4.600000e+00
   endloop
 endfacet
 facet normal 0.000000e+00 -0.000000e+00 -1.000000e+00
   outer loop
     vertex 2.580000e+01 2.500000e+00 4.600000e+00
     vertex 2.580000e+01 0.000000e+00 4.600000e+00
     vertex 2.550000e+01 3.000000e-01 4.600000e+00
   endloop
 endfacet
 facet normal 0.000000e+00 0.000000e+00 -1.000000e+00
   outer loop
     vertex 2.550000e+01 2.500000e+00 4.600000e+00
     vertex 2.580000e+01 2.500000e+00 4.600000e+00
     vertex 2.550000e+01 3.000000e-01 4.600000e+00
   endloop
 endfacet
 facet normal 0.000000e+00 -0.000000e+00 -1.000000e+00
   outer loop
     vertex 2.030000e+01 3.000000e-01 4.600000e+00
     vertex 2.580000e+01 0.000000e+00 4.600000e+00
     vertex 2.000000e+01 0.000000e+00 4.600000e+00
   endloop
 endfacet
 facet normal 0.000000e+00 0.000000e+00 -1.000000e+00
   outer loop
     vertex 2.030000e+01 3.000000e-01 4.600000e+00
     vertex 2.550000e+01 3.000000e-01 4.600000e+00
     vertex 2.580000e+01 0.000000e+00 4.600000e+00
   endloop
 endfacet
 facet normal 0.000000e+00 0.000000e+00 -1.000000e+00
   outer loop
     vertex 2.000000e+01 1.070000e+01 4.600000e+00
     vertex 2.030000e+01 1.070000e+01 4.600000e+00
     vertex 2.030000e+01 3.000000e-01 4.600000e+00
   endloop
 endfacet
 facet normal 0.000000e+00 0.000000e+00 -1.000000e+00
   outer loop
     vertex 2.000000e+01 1.070000e+01 4.600000e+00
     vertex 2.030000e+01 3.000000e-01 4.600000e+00
     vertex 2.000000e+01 0.000000e+00 4.600000e+00
   endloop
 endfacet
 facet normal 0.000000e+00 -1.000000e+00 0.000000e+00
   outer loop
     vertex 2.550000e+01 2.500000e+00 0.000000e+00
     vertex 2.580000e+01 2.500000e+00 4.600000e+00
     vertex 2.550000e+01 2.500000e+00 4.600000e+00
   endloop
 endfacet
 facet normal 0.000000e+00 -1.000000e+00 0.000000e+00
   outer loop
     vertex 3.230000e+01 2.500000e+00 0.000000e+00
     vertex 3.230000e+01 2.500000e+00 4.600000e+00
     vertex 2.580000e+01 2.500000e+00 4.600000e+00
   endloop
 endfacet
 facet normal 0.000000e+00 -1.000000e+00 0.000000e+00
   outer loop
     vertex 3.230000e+01 2.500000e+00 0.000000e+00
     vertex 2.580000e+01 2.500000e+00 4.600000e+00
     vertex 2.550000e+01 2.500000e+00 0.000000e+00
   endloop
 endfacet
 facet normal 0.000000e+00 0.000000e+00 -1.000000e+00
   outer loop
     vertex 3.230000e+01 1.070000e+01 4.600000e+00
     vertex 3.260000e+01 2.500000e+00 4.600000e+00
     vertex 3.230000e+01 2.500000e+00 4.600000e+00
   endloop
 endfacet
 facet normal 0.000000e+00 0.000000e+00 -1.000000e+00
   outer loop
     vertex 3.230000e+01 1.070000e+01 4.600000e+00
     vertex 3.260000e+01 1.070000e+01 4.600000e+00
     vertex 3.260000e+01 2.500000e+00 4.600000e+00
   endloop
 endfacet
 facet normal 0.000000e+00 -1.000000e+00 0.000000e+00
   outer loop
     vertex 2.030000e+01 3.000000e-01 0.000000e+00
     vertex 2.550000e+01 3.000000e-01 0.000000e+00
     vertex 2.550000e+01 3.000000e-01 4.600000e+00
   endloop
 endfacet
 facet normal 0.000000e+00 -1.000000e+00 0.000000e+00
   outer loop
     vertex 2.030000e+01 3.000000e-01 0.000000e+00
     vertex 2.550000e+01 3.000000e-01 4.600000e+00
     vertex 2.030000e+01 3.000000e-01 4.600000e+00
   endloop
 endfacet
 facet normal 1.000000e+00 0.000000e+00 0.000000e+00
   outer loop
     vertex 2.550000e+01 3.000000e-01 0.000000e+00
     vertex 2.550000e+01 2.500000e+00 0.000000e+00
     vertex 2.550000e+01 2.500000e+00 4.600000e+00
   endloop
 endfacet
 facet normal 1.000000e+00 0.000000e+00 0.000000e+00
   outer loop
     vertex 2.550000e+01 3.000000e-01 0.000000e+00
     vertex 2.550000e+01 2.500000e+00 4.600000e+00
     vertex 2.550000e+01 3.000000e-01 4.600000e+00
   endloop
 endfacet
 facet normal 0.000000e+00 -5.774647e-01 8.164156e-01
   outer loop
     vertex 3.230000e+01 2.500000e+00 4.600000e+00
     vertex 3.260000e+01 2.500000e+00 4.600000e+00
     vertex 3.260000e+01 6.600000e+00 7.500000e+00
   endloop
 endfacet
 facet normal 0.000000e+00 -5.774647e-01 8.164156e-01
   outer loop
     vertex 2.580000e+01 2.500000e+00 4.600000e+00
     vertex 3.260000e+01 6.600000e+00 7.500000e+00
     vertex 2.290000e+01 6.600000e+00 7.500000e+00
   endloop
 endfacet
 facet normal 0.000000e+00 -5.774647e-01 8.164156e-01
   outer loop
     vertex 2.580000e+01 2.500000e+00 4.600000e+00
     vertex 3.230000e+01 2.500000e+00 4.600000e+00
     vertex 3.260000e+01 6.600000e+00 7.500000e+00
   endloop
 endfacet
 facet normal 1.000000e+00 0.000000e+00 0.000000e+00
   outer loop
     vertex 3.260000e+01 2.500000e+00 4.600000e+00
     vertex 3.260000e+01 1.070000e+01 4.600000e+00
     vertex 3.260000e+01 6.600000e+00 7.500000e+00
   endloop
 endfacet
 facet normal 0.000000e+00 -1.000000e+00 -0.000000e+00
   outer loop
     vertex 2.290000e+01 0.000000e+00 7.500000e+00
     vertex 2.000000e+01 0.000000e+00 4.600000e+00
     vertex 2.580000e+01 0.000000e+00 4.600000e+00
   endloop
 endfacet
 facet normal 7.071068e-01 0.000000e+00 7.071068e-01
   outer loop
     vertex 2.290000e+01 0.000000e+00 7.500000e+00
     vertex 2.580000e+01 0.000000e+00 4.600000e+00
     vertex 2.580000e+01 2.500000e+00 4.600000e+00
   endloop
 endfacet
 facet normal 7.071068e-01 -0.000000e+00 7.071068e-01
   outer loop
     vertex 2.290000e+01 0.000000e+00 7.500000e+00
     vertex 2.580000e+01 2.500000e+00 4.600000e+00
     vertex 2.290000e+01 6.600000e+00 7.500000e+00
   endloop
 endfacet
endsolid shape
